<svg viewBox="0 0 24 24" xmlns="http://www.w3.org/2000/svg" xmlns:xlink="http://www.w3.org/1999/xlink"><style>:root&gt;svg{display:none}:root&gt;svg:target{display:block}</style><svg viewBox="0 0 24 24" id="checkbox" xmlns="http://www.w3.org/2000/svg"><path d="M10 15.172l9.192-9.193 1.415 1.414L10 18l-6.364-6.364 1.414-1.414z" fill="#f8f8f8"/></svg><svg viewBox="0 0 24 24" id="logged-in" xmlns="http://www.w3.org/2000/svg"><path d="M4 22a8 8 0 1116 0h-2a6 6 0 10-12 0H4zm8-9c-3.315 0-6-2.685-6-6s2.685-6 6-6 6 2.685 6 6-2.685 6-6 6zm0-2c2.21 0 4-1.79 4-4s-1.79-4-4-4-4 1.79-4 4 1.79 4 4 4z" fill="#0053B3"/></svg><svg viewBox="0 0 24 24" id="logged-in-sm" xmlns="http://www.w3.org/2000/svg"><path d="M4 22a8 8 0 1116 0h-2a6 6 0 10-12 0H4zm8-9c-3.315 0-6-2.685-6-6s2.685-6 6-6 6 2.685 6 6-2.685 6-6 6zm0-2c2.21 0 4-1.79 4-4s-1.79-4-4-4-4 1.79-4 4 1.79 4 4 4z"/></svg><svg viewBox="0 0 24 24" id="logged-out" xmlns="http://www.w3.org/2000/svg"><path d="M4 15h2v5h12V4H6v5H4V3a1 1 0 011-1h14a1 1 0 011 1v18a1 1 0 01-1 1H5a1 1 0 01-1-1v-6zm6-4V8l5 4-5 4v-3H2v-2h8z" fill="#0053B3"/></svg><svg viewBox="0 0 24 24" id="logged-out-sm" xmlns="http://www.w3.org/2000/svg"><path d="M4 15h2v5h12V4H6v5H4V3a1 1 0 011-1h14a1 1 0 011 1v18a1 1 0 01-1 1H5a1 1 0 01-1-1v-6zm6-4V8l5 4-5 4v-3H2v-2h8z"/></svg><svg viewBox="0 0 24 24" id="menu-toggle" xmlns="http://www.w3.org/2000/svg"><path d="M3 4h18v2H3V4zm0 7h18v2H3v-2zm0 7h18v2H3v-2z"/></svg><svg viewBox="0 0 24 24" id="nav-logged-in-points" xmlns="http://www.w3.org/2000/svg"><path d="M2 3.993A1 1 0 012.992 3h18.016c.548 0 .992.445.992.993v16.014a1 1 0 01-.992.993H2.992A.993.993 0 012 20.007V3.993zM4 5v14h16V5H4zm2 2h6v6H6V7zm2 2v2h2V9H8zm-2 6h12v2H6v-2zm8-8h4v2h-4V7zm0 4h4v2h-4v-2z"/></svg><svg viewBox="0 0 24 24" id="nav-user-logout" xmlns="http://www.w3.org/2000/svg"><path d="M4 18h2v2h12V4H6v2H4V3a1 1 0 011-1h14a1 1 0 011 1v18a1 1 0 01-1 1H5a1 1 0 01-1-1v-3zm2-7h7v2H6v3l-5-4 5-4v3z"/></svg><svg viewBox="0 0 24 24" id="nav-user-updates" xmlns="http://www.w3.org/2000/svg"><path d="M22 20H2v-2h1v-6.969C3 6.043 7.03 2 12 2s9 4.043 9 9.031V18h1v2zM5 18h14v-6.969C19 7.148 15.866 4 12 4s-7 3.148-7 7.031V18zm4.5 3h5a2.5 2.5 0 11-5 0z"/></svg><svg viewBox="0 0 24 24" id="search-button" xmlns="http://www.w3.org/2000/svg"><path d="M18.031 16.617l4.283 4.282-1.415 1.415-4.282-4.283A8.96 8.96 0 0111 20c-4.968 0-9-4.032-9-9s4.032-9 9-9 9 4.032 9 9a8.96 8.96 0 01-1.969 5.617zm-2.006-.742A6.977 6.977 0 0018 11c0-3.868-3.133-7-7-7-3.868 0-7 3.132-7 7 0 3.867 3.132 7 7 7a6.977 6.977 0 004.875-1.975l.15-.15z" fill="#fff"/></svg><svg viewBox="0 0 24 24" id="search-toggle" xmlns="http://www.w3.org/2000/svg"><path d="M18.031 16.617l4.283 4.282-1.415 1.415-4.282-4.283A8.96 8.96 0 0111 20c-4.968 0-9-4.032-9-9s4.032-9 9-9 9 4.032 9 9a8.96 8.96 0 01-1.969 5.617zm-2.006-.742A6.977 6.977 0 0018 11c0-3.868-3.133-7-7-7-3.868 0-7 3.132-7 7 0 3.867 3.132 7 7 7a6.977 6.977 0 004.875-1.975l.15-.15z"/></svg></svg>