<svg viewBox="0 0 24 24" xmlns="http://www.w3.org/2000/svg" xmlns:xlink="http://www.w3.org/1999/xlink"><style>:root&gt;svg{display:none}:root&gt;svg:target{display:block}</style><svg viewBox="0 0 24 24" id="logged-out" xmlns="http://www.w3.org/2000/svg"><path fill="none" d="M0 0h24v24H0z"/><path d="M4 15h2v5h12V4H6v5H4V3a1 1 0 011-1h14a1 1 0 011 1v18a1 1 0 01-1 1H5a1 1 0 01-1-1v-6zm6-4V8l5 4-5 4v-3H2v-2h8z" fill="#0053B3"/></svg><svg viewBox="0 0 24 24" id="menu-toggle" xmlns="http://www.w3.org/2000/svg"><path fill="none" d="M0 0h24v24H0z"/><path d="M3 4h18v2H3V4zm0 7h18v2H3v-2zm0 7h18v2H3v-2z"/></svg></svg>